<!DOCTYPE svg PUBLIC "-//W3C//DTD SVG 1.1//EN" "http://www.w3.org/Graphics/SVG/1.1/DTD/svg11.dtd">
<!-- Uploaded to: SVG Repo, www.svgrepo.com, Transformed by: SVG Repo Mixer Tools -->
<svg width="800px" height="800px" viewBox="0 0 16 16" xmlns:dc="http://purl.org/dc/elements/1.1/" xmlns:cc="http://creativecommons.org/ns#" xmlns:rdf="http://www.w3.org/1999/02/22-rdf-syntax-ns#" xmlns="http://www.w3.org/2000/svg" id="svg2" version="1.1" fill="#000000">
<g id="SVGRepo_bgCarrier" stroke-width="0"/>
<g id="SVGRepo_tracerCarrier" stroke-linecap="round" stroke-linejoin="round"/>
<g id="SVGRepo_iconCarrier">
<metadata id="metadata7">
<rdf:rdf>
<cc:work>
<dc:format>image/svg+xml</dc:format>
<dc:type rdf:resource="http://purl.org/dc/dcmitype/StillImage"/>
<dc:title/>
<dc:date>2021</dc:date>
<dc:creator>
<cc:agent>
<dc:title>Timothée Giet</dc:title>
</cc:agent>
</dc:creator>
<cc:license rdf:resource="http://creativecommons.org/licenses/by-sa/4.0/"/>
</cc:work>
<cc:license rdf:about="http://creativecommons.org/licenses/by-sa/4.0/">
<cc:permits rdf:resource="http://creativecommons.org/ns#Reproduction"/>
<cc:permits rdf:resource="http://creativecommons.org/ns#Distribution"/>
<cc:requires rdf:resource="http://creativecommons.org/ns#Notice"/>
<cc:requires rdf:resource="http://creativecommons.org/ns#Attribution"/>
<cc:permits rdf:resource="http://creativecommons.org/ns#DerivativeWorks"/>
<cc:requires rdf:resource="http://creativecommons.org/ns#ShareAlike"/>
</cc:license>
</rdf:rdf>
</metadata>
<path style="opacity:1;vector-effect:none;fill:#000000;fill-opacity:1;stroke:none;stroke-width:4;stroke-linecap:square;stroke-linejoin:round;stroke-miterlimit:4;stroke-dasharray:none;stroke-dashoffset:3.20000005;stroke-opacity:1" d="M4.78 2.424a7 7 0 0 0-2.258 2.942l1.848.751a5 5 0 0 1 1.616-2.099zm1.502-.866.776 1.84a5 5 0 0 1 2.627-.345l.273-1.984a7 7 0 0 0-3.676.49zM2.07 7.042a7 7 0 0 0 .49 3.676l1.839-.776a5 5 0 0 1-.345-2.627zm9.565-5.52-.751 1.848a5 5 0 0 1 2.099 1.616l1.594-1.207a7 7 0 0 0-2.942-2.257zm-6.616 9.492L3.424 12.22a7 7 0 0 0 2.942 2.257l.751-1.848a5 5 0 0 1-2.099-1.616zm8.584-4.956a5 5 0 0 1 .345 2.627l1.984.273a7 7 0 0 0-.49-3.676zm-5.287 6.889-.273 1.984a7 7 0 0 0 3.676-.49l-.776-1.839a5 5 0 0 1-2.627.345zm5.315-3.064a5 5 0 0 1-1.616 2.099l1.207 1.594a7 7 0 0 0 2.257-2.942z" id="path1012"/>
</g>
</svg>