<svg xmlns="http://www.w3.org/2000/svg" id="b" width="800" height="800" fill="#000" viewBox="0 0 48 48"><g id="SVGRepo_iconCarrier"><defs><style>.t{fill:none;stroke:#000;stroke-linecap:round;stroke-linejoin:round}</style></defs><circle id="c" cx="36.096" cy="22.654" r="1.393" class="t"/><circle id="d" cx="40.222" cy="26.814" r="1.672" class="t"/><path id="e" d="m12.213 10.465 11.304 1.98" class="t"/><path id="f" d="m15.547 14.476 7.345 1.302" class="t"/><path id="g" d="m13.412 17.34 8.959 1.563" class="t"/><path id="h" d="m28.95 31.996-.277-3.404c-.694-4.605-6.012-5.723-7.657-1.276-1.821 3.764-8.313 7.281-15.418 8.151 2.863 9.246 18.17 7.426 20.263 4.74" class="t"/><path id="i" d="M26.955 34.79c-4.982 2.828-.246 7.569 2.604 5.73 2.071 2.777 6.469 2.25 7.5.156 5.886 2.626 7.238-5.573 2.397-6.302-1.076-3.761-4.968-4.413-7.293-2.136-1.987-.49-4.029-1.266-5.209 2.552" class="t"/><path id="j" d="M9.297 17.407v1.51" class="t"/><path id="k" d="M9.297 21.27v1.51" class="t"/><path id="l" d="m10.525 20.094 1.51.052" class="t"/><path id="m" d="M6.662 20.146h1.51" class="t"/><path id="n" d="m14.071 27.942 1.031 1.105m0-3.873-1.068 1.068m-2.731-.995 1.068 1.068m0 1.59-1.068 1.068" class="t"/><path id="o" d="M21.016 27.316c2.328 1.94 4.939 1.975 7.657 1.276" class="t"/><path id="p" d="M10.978 41.135c5.694-1.93 9.219-4.403 11.184-7.282" class="t"/><path id="q" d="M22.11 38.489c-1.116 1.544-2.471 2.825-4.766 3.878" class="t"/><path id="r" d="M7.102 38.31c3.241-.09 5.776-1.216 8.237-2.478" class="t"/><path id="s" d="m23.712 24.616 3.217-17.172c.448-2.972 3.947-2.119 3.268.573L26.833 25.29" class="t"/></g></svg>