<svg xmlns="http://www.w3.org/2000/svg" width="800" height="800" viewBox="0 0 16 16"><path d="M4.78 2.424a7 7 0 0 0-2.258 2.942l1.848.751a5 5 0 0 1 1.616-2.099zm1.502-.866.776 1.84a5 5 0 0 1 2.627-.345l.273-1.984a7 7 0 0 0-3.676.49zM2.07 7.042a7 7 0 0 0 .49 3.676l1.839-.776a5 5 0 0 1-.345-2.627zm9.565-5.52-.751 1.848a5 5 0 0 1 2.099 1.616l1.594-1.207a7 7 0 0 0-2.942-2.257m-6.616 9.492L3.424 12.22a7 7 0 0 0 2.942 2.257l.751-1.848a5 5 0 0 1-2.099-1.616zm8.584-4.956a5 5 0 0 1 .345 2.627l1.984.273a7 7 0 0 0-.49-3.676zm-5.287 6.889-.273 1.984a7 7 0 0 0 3.676-.49l-.776-1.839a5 5 0 0 1-2.627.345m5.315-3.064a5 5 0 0 1-1.616 2.099l1.207 1.594a7 7 0 0 0 2.257-2.942z" style="opacity:1;vector-effect:none;fill:#000;fill-opacity:1;stroke:none;stroke-width:4;stroke-linecap:square;stroke-linejoin:round;stroke-miterlimit:4;stroke-dasharray:none;stroke-dashoffset:3.20000005;stroke-opacity:1"/></svg>