<svg xmlns="http://www.w3.org/2000/svg" width="800" height="800" class="icon" viewBox="0 0 1024 1024"><path d="M512 0C250.734 0 46.04 111.952 46.04 254.907v514.054c0 142.954 204.694 254.907 465.96 254.907S977.96 911.915 977.96 768.96V254.907C977.828 111.952 773.266 0 512 0M125.532 508.224c0-20.536 9.01-41.071 26.763-61.21 5.697-6.359 8.744-14.176 9.672-21.992 84.792 52.465 209.066 85.057 350.033 85.057 139.642 0 263.121-32.062 347.781-83.6 1.59 6.492 4.505 12.586 9.274 17.886 19.476 21.065 29.28 42.529 29.28 63.992 0 82.937-158.72 175.414-386.467 175.414s-386.336-92.61-386.336-175.547M512 79.493c227.747 0 386.468 92.476 386.468 175.414S739.747 430.454 512 430.454s-386.468-92.477-386.468-175.547S284.253 79.493 512 79.493m0 865.014c-227.747 0-386.468-92.476-386.468-175.546 0-20.536 9.01-41.072 26.763-61.21 7.42-8.48 10.599-19.21 9.804-29.545C246.891 730.54 371.165 763.131 512 763.131c139.112 0 262.061-31.797 346.721-82.937.53 8.876 3.842 17.753 10.334 24.775 19.476 21.065 29.28 42.528 29.28 63.992 0 83.07-158.588 175.546-386.335 175.546"/></svg>