<svg xmlns="http://www.w3.org/2000/svg" xml:space="preserve" id="_x32_" width="800" height="800" fill="#000" version="1.1" viewBox="0 0 512 512"><g id="SVGRepo_iconCarrier"><style>.st0{fill:#000}</style><path d="M190.5 213.96c-3.887 5.298-3.314 12.346 1.299 15.726l55.58 42.879.774.444.347.193c4.806 2.677 11.17 1.258 15.411-3.412l.371-.354 68.121-80.597c3.879-4.347 3.944-10.605.17-13.96-3.782-3.363-9.984-2.556-13.847 1.79l-63.678 68.024-49.161-34.235c-4.597-3.385-11.492-1.813-15.387 3.502M60.152 245.726c-.249 3.371-.314 6.806-.314 10.234 0 3.5.064 6.871.314 10.242h40.694c-.364-3.371-.436-6.798-.436-10.242 0-3.427.072-6.862.436-10.234zM165.419 82.016a159 159 0 0 0-14.814 8.517l20.29 35.234 1.492-1.008c3.846-2.436 7.774-4.734 11.758-6.766l1.557-.75zM90.548 150.596a159 159 0 0 0-8.516 14.807l35.234 20.282 8.524-14.798zM125.79 340.976l-1.024-1.492c-2.428-3.79-4.726-7.71-6.758-11.766l-.814-1.548-35.161 20.282c2.5 5.073 5.403 10.008 8.516 14.806zM172.387 387.097l-1.492-1.016-20.29 35.241c4.798 3.113 9.742 6.016 14.814 8.589l20.283-35.234-1.557-.75c-3.984-2.024-7.911-4.322-11.758-6.83M361.282 90.532c-4.798-3.113-9.678-5.952-14.734-8.517l-20.363 35.162 14.806 8.588zM266.209 100.838V60.201c-3.371-.306-6.798-.371-10.242-.371-3.428 0-6.855.064-10.234.371v41.065h20.476zM386.064 170.863l7.847 13.541.742 1.322.25-.169 35.016-20.145c-2.564-5.121-5.451-9.992-8.588-14.783zM448.992 266.072c.17.089.17.089.17.169h2.637c.25-3.386.331-6.854.331-10.322 0-3.387-.081-6.854-.331-10.161h-25.186c.331.249.662.58.992.83z" class="st0"/><path d="M256 0C114.54 0 0 114.54 0 256c0 141.379 114.54 255.919 256 256 15.282 0 30.306-1.403 44.847-3.96-12.637-7.847-23.782-17.839-33.032-29.403-3.887.249-7.847.33-11.815.33-61.686-.081-117.258-24.935-157.725-65.323C57.895 373.266 33.032 317.605 33.032 256c0-61.685 24.862-117.266 65.242-157.726C138.741 57.887 194.314 33.032 256 33.032c61.605 0 117.186 24.855 157.654 65.242 40.378 40.46 65.234 96.04 65.314 157.726 0 14.621-1.484 28.903-4.129 42.693 9.58 14.952 16.604 30.726 20.975 46.912C506.306 317.685 512 287.548 512 256 511.919 114.54 397.379 0 256 0" class="st0"/><path d="M412.702 268.621c-19.315-15.452-26.855-32.484-29.759-44.621-2.33-9.718-1.105-10.774-1.105-10.774-.096-1.153-.83-2.153-1.879-2.637a3.22 3.22 0 0 0-3.242.266s-3.742.807-9.838 6.726c-13.887 13.467-29.573 35.967-19.242 66.701 11.121 32.976 5.234 39.887-.572 39.444-7.532-.589-8.694-5.226-7.492-19.686 1.403-16.887-13.92-31.323-13.92-31.323s-23.814 37.855-42.371 64.928c-10.968 15.992-16.226 36.338-16.226 54.887h-.371c0 57.08 46.266 103.346 103.339 103.346s103.322-46.266 103.322-103.346c3.936-49.556-22.992-93.782-60.644-123.911m-42.493 198.161c-31.492 0-57.008-25.524-57.008-57.008 0-10.71 2.968-20.75 8.097-29.306 4.436 16.491 19.484 28.621 37.363 28.621 21.371 0 38.694-17.315 38.694-38.662 0-4.089-.646-8.024-1.815-11.709 18.758 9.322 31.661 28.67 31.661 51.056 0 31.484-25.508 57.008-56.992 57.008" class="st0"/></g></svg>